<?xml version="1.0" encoding="UTF-8" standalone="no"?>
<!-- Created with Inkscape (http://www.inkscape.org/) -->

<svg
   width="32"
   height="32"
   viewBox="0 0 32 32"
   version="1.1"
   id="svg1"
   inkscape:version="1.4 (86a8ad7, 2024-10-11)"
   sodipodi:docname="ball.svg"
   xmlns:inkscape="http://www.inkscape.org/namespaces/inkscape"
   xmlns:sodipodi="http://sodipodi.sourceforge.net/DTD/sodipodi-0.dtd"
   xmlns="http://www.w3.org/2000/svg"
   xmlns:svg="http://www.w3.org/2000/svg">
  <sodipodi:namedview
     id="namedview1"
     pagecolor="#ffffff"
     bordercolor="#999999"
     borderopacity="1"
     inkscape:showpageshadow="2"
     inkscape:pageopacity="0"
     inkscape:pagecheckerboard="0"
     inkscape:deskcolor="#d1d1d1"
     inkscape:document-units="px"
     inkscape:zoom="12.609375"
     inkscape:cx="11.023544"
     inkscape:cy="15.742255"
     inkscape:window-width="1920"
     inkscape:window-height="1009"
     inkscape:window-x="-8"
     inkscape:window-y="-8"
     inkscape:window-maximized="1"
     inkscape:current-layer="layer1" />
  <defs
     id="defs1">
    <clipPath
       clipPathUnits="userSpaceOnUse"
       id="clipPath2">
      <circle
         style="fill:#ffcc00;stroke-width:1.864;stroke-linecap:round;stroke-linejoin:round"
         id="circle2"
         cx="16"
         cy="16"
         r="16" />
    </clipPath>
  </defs>
  <g
     inkscape:label="Layer 1"
     inkscape:groupmode="layer"
     id="layer1">
    <circle
       style="fill:#ffcc00;stroke-width:1.864;stroke-linecap:round;stroke-linejoin:round"
       id="path1"
       cx="16"
       cy="16"
       r="16" />
    <g
       id="g2"
       clip-path="url(#clipPath2)">
      <path
         id="path1-8"
         style="fill:none;stroke:#ffffff;stroke-width:1.864;stroke-linecap:round;stroke-linejoin:round;stroke-opacity:1"
         d="M 12,16 A 16,16 0 0 1 -4,32 16,16 0 0 1 -20,16 16,16 0 0 1 -4,0 16,16 0 0 1 12,16 Z" />
      <path
         id="path1-8-5"
         style="fill:none;stroke:#ffffff;stroke-width:1.864;stroke-linecap:round;stroke-linejoin:round"
         d="M 52,16 A 16,16 0 0 1 36,32 16,16 0 0 1 20,16 16,16 0 0 1 36,0 16,16 0 0 1 52,16 Z" />
    </g>
  </g>
</svg>
